<?xml version="1.0" standalone="no"?>
<svg version="1.0" xmlns="http://www.w3.org/2000/svg"
 width="512.000000pt" height="512.000000pt" viewBox="0 0 512.000000 512.000000"
 preserveAspectRatio="xMidYMid meet">

<g transform="translate(0.000000,512.000000) scale(0.100000,-0.100000)"
fill="#fff" stroke="none">
<path d="M2410 4650 c-466 -31 -894 -214 -1256 -537 -39 -34 -74 -63 -78 -63
-3 0 -24 16 -46 36 -22 20 -42 35 -44 33 -11 -12 -62 -300 -52 -296 6 2 71 24
144 48 72 24 132 46 132 50 0 4 -18 23 -41 44 l-41 37 24 25 c12 14 64 60 113
101 281 236 633 391 1010 447 146 21 424 21 570 0 640 -94 1186 -469 1499
-1030 111 -200 195 -453 231 -700 20 -132 22 -411 5 -538 -14 -100 -10 -120
22 -115 20 3 24 12 36 83 19 124 18 438 -3 575 -69 461 -275 872 -601 1195
-430 427 -1014 645 -1624 605z"/>
<path d="M2255 3459 c-153 -193 -281 -346 -283 -340 -2 7 -36 11 -88 11 l-84
0 0 -125 0 -125 -160 -207 c-132 -170 -160 -212 -160 -239 0 -38 29 -64 72
-64 l28 0 0 -375 0 -375 910 0 910 0 0 401 0 401 31 -26 c18 -15 43 -26 60
-26 36 0 79 39 79 73 0 15 -122 184 -361 498 -199 261 -429 563 -512 672 -82
108 -153 197 -156 197 -3 0 -132 -158 -286 -351z m371 -12 c50 -67 231 -306
403 -532 l311 -410 0 -412 0 -413 -850 0 -850 0 0 388 1 387 440 558 c242 306
444 557 447 557 4 -1 48 -56 98 -123z m-721 -400 c-1 -25 -32 -77 -46 -77 -5
0 -9 23 -9 50 0 48 1 50 28 50 22 0 27 -4 27 -23z"/>
<path d="M2800 2794 c-55 -34 -191 -84 -233 -84 -12 0 -53 -7 -90 -15 -229
-48 -355 -204 -327 -403 8 -57 18 -94 35 -129 1 -2 27 22 59 53 63 61 144 104
246 130 93 24 148 54 207 116 59 63 97 133 130 238 15 46 21 60 18 35 -18
-117 -103 -277 -180 -338 -45 -35 -120 -73 -165 -82 -66 -13 -164 -67 -216
-120 -76 -76 -146 -225 -114 -245 19 -12 40 -1 40 21 0 21 29 99 37 99 3 0 19
-10 35 -22 126 -89 304 -90 435 -2 83 57 135 149 153 270 13 91 13 298 -1 404
-6 47 -11 91 -11 98 -1 6 -2 12 -2 12 -1 0 -26 -16 -56 -36z"/>
<path d="M665 3456 c-24 -36 -25 -89 -3 -94 22 -4 59 54 56 88 -4 34 -33 37
-53 6z"/>
<path d="M612 3327 c-6 -7 -17 -34 -24 -60 -10 -37 -10 -49 0 -59 20 -20 44 2
62 58 10 27 15 55 12 62 -6 16 -37 16 -50 -1z"/>
<path d="M556 3172 c-8 -13 -46 -169 -46 -190 0 -25 23 -35 43 -19 17 14 62
191 52 206 -7 13 -42 15 -49 3z"/>
<path d="M497 2916 c-32 -84 -39 -469 -12 -651 138 -929 849 -1640 1780 -1781
150 -22 433 -22 589 0 404 58 786 233 1088 500 54 47 101 86 105 86 4 0 24
-17 45 -37 21 -20 40 -34 43 -32 6 6 65 293 61 297 -4 4 -270 -89 -279 -97 -5
-5 11 -25 35 -46 l43 -37 -79 -74 c-198 -185 -494 -353 -766 -434 -578 -171
-1205 -80 -1700 249 -494 327 -818 834 -905 1416 -20 131 -22 410 -5 538 7 48
9 94 6 102 -7 19 -42 19 -49 1z"/>
<path d="M4556 2148 c-19 -58 -46 -184 -42 -195 3 -8 16 -13 28 -11 17 2 26
16 40 63 10 33 19 80 21 105 2 40 -1 45 -21 48 -12 2 -24 -3 -26 -10z"/>
<path d="M4501 1911 c-15 -10 -50 -102 -44 -118 3 -7 15 -13 27 -13 18 0 27
10 40 43 9 23 16 52 16 64 0 23 -20 35 -39 24z"/>
<path d="M4420 1728 c-25 -41 -22 -72 7 -76 38 -6 73 88 37 102 -23 9 -22 9
-44 -26z"/>
</g>
</svg>